# Blender v2.71 (sub 0) OBJ File: 'island.blend'
# www.blender.org
mtllib largeRock2.mtl
o Icosphere.002
v -3.491021 -346.604248 3.491021
v 114.531631 -65.929237 56.137138
v -14.285122 -67.765419 75.183586
v -79.502518 -64.069473 -17.501471
v -38.212067 -91.363045 -74.491661
v 96.243576 -60.464775 -74.790588
v 48.888908 105.246712 63.804573
v -61.512894 108.174942 35.344925
v -69.768593 104.089653 -75.811157
v 47.940239 116.970940 -118.428009
v 104.862305 95.307915 -12.601830
v -1.128541 175.883804 0.704173
v -15.081157 -223.695435 48.814026
v 56.780685 -210.758057 16.652725
v 38.515240 -93.892982 99.491409
v 128.346603 -84.700897 -11.475389
v 30.629311 -236.909424 -18.998180
v -43.787445 -216.196655 -8.813867
v -67.023705 -87.985283 40.212482
v -22.329571 -231.090652 -43.915512
v -74.585495 -101.872757 -44.427200
v 33.505375 -89.277107 -88.118767
v 85.037056 -2.551214 42.950138
v 92.503540 1.631216 -27.823477
v -6.610979 2.043213 106.610970
v 66.087578 15.562717 74.309677
v -73.912643 29.869995 9.683760
v -50.521370 16.911383 72.644485
v -50.433495 18.324097 -91.391273
v -76.403435 29.095285 -51.977303
v 62.194675 11.408767 -84.309837
v -2.392056 6.263417 -97.610336
v 67.959564 104.687065 50.858711
v -38.949173 97.922371 92.886864
v -81.062241 128.432053 -18.708256
v -13.427946 149.721542 -119.093246
v 107.365616 141.859116 -86.511154
v 4.301367 144.180283 61.943665
v 41.929802 145.577713 10.615936
v -52.379646 158.400558 36.506611
v -36.700256 188.321945 -49.384712
v 29.563669 181.199615 -73.068520
vt 0.178119 0.000000
vt 0.218673 0.148711
vt 0.110664 0.131426
vt 0.558663 0.411570
vt 0.675186 0.206717
vt 0.610502 0.424788
vt 0.510603 0.841295
vt 0.431176 0.657711
vt 0.519555 0.631876
vt 0.937292 0.831653
vt 0.872953 0.629772
vt 0.927617 0.639256
vt 0.768302 0.000000
vt 0.818560 0.185468
vt 0.739829 0.180080
vt 0.234345 0.289981
vt 0.306277 0.312277
vt 0.200365 0.393724
vt 0.365283 0.421376
vt 0.314536 0.473385
vt 0.306277 0.320081
vt 0.517435 0.390142
vt 0.439268 0.439150
vt 0.460353 0.250483
vt 0.904313 0.416090
vt 0.840413 0.443700
vt 0.881040 0.243473
vt 0.701295 0.483463
vt 0.783716 0.429915
vt 0.737191 0.581394
vt 0.150793 0.400055
vt 0.368229 0.284983
vt 0.544194 0.240328
vt 0.945575 0.258580
vt 0.652942 0.546583
vt 0.125298 0.532281
vt 0.158004 0.534976
vt 0.068308 0.600224
vt 0.405343 0.135668
vt 0.320318 0.164902
vt 0.390031 0.059456
vt 0.558663 0.121003
vt 0.482430 0.092000
vt 0.492379 0.000000
vt 0.094408 0.824651
vt 0.094408 0.930808
vt 0.000000 0.894286
vt 0.252539 0.558647
vt 0.306277 0.675803
vt 0.152610 0.628581
vt 0.114934 0.245710
vt 0.558663 0.444474
vt 1.000000 0.406528
vt 0.594298 0.500638
vt 0.613711 0.676913
vt 0.263843 0.450885
vt 0.041774 0.382179
vt 0.818560 0.241911
vt 0.829737 0.119136
vt 0.818560 0.561282
vt 0.771277 0.746896
vt 0.000000 0.530186
vt 0.920608 0.032941
vt 1.000000 0.081725
vt 0.675234 0.783900
vt 0.105004 0.690783
vt 0.019157 0.657712
vt 0.100292 0.757621
vt 0.198069 0.743848
vt 0.000511 1.000000
vt 0.833493 0.000000
vt 0.012475 0.757621
vn -0.032000 -0.999200 0.023900
vn 0.788700 -0.518700 0.330100
vn -0.331700 -0.391200 0.858400
vn 0.854500 0.015700 0.519100
vn 0.984100 -0.120200 -0.130500
vn -0.947900 -0.318400 0.003300
vn -0.343700 -0.416000 -0.841900
vn 0.646000 -0.401200 -0.649300
vn 0.928600 0.270500 0.253900
vn -0.517000 -0.209300 0.830000
vn 0.128000 -0.228800 0.965000
vn -0.166100 -0.036200 0.985400
vn -0.996700 -0.067100 0.044300
vn -0.839200 -0.157000 0.520700
vn -0.976300 0.014300 0.215600
vn -0.389800 -0.207400 -0.897200
vn -0.898700 -0.215900 -0.381700
vn -0.543700 -0.117300 -0.831000
vn 0.681400 -0.042200 -0.730700
vn 0.120000 -0.238000 -0.963800
vn 0.546700 -0.104300 -0.830800
vn 0.634000 0.176600 0.752900
vn -0.801600 -0.069500 0.593700
vn -0.962800 -0.034400 -0.267900
vn -0.018600 -0.156600 -0.987500
vn 0.980300 0.101800 -0.169000
vn 0.435100 0.367400 0.822000
vn 0.700500 0.436200 0.564800
vn 0.221700 0.697300 0.681600
vn -0.923700 0.092500 0.371700
vn -0.428100 0.274500 0.861000
vn -0.564600 0.678400 0.470100
vn -0.842300 0.151600 -0.517100
vn -0.957900 0.286400 0.017100
vn -0.425200 0.890300 -0.163200
vn 0.260500 0.109800 -0.959200
vn -0.250100 0.428700 -0.868100
vn 0.287600 0.922100 -0.258600
vn 0.937800 0.234900 0.255700
vn 0.800400 0.457600 -0.387100
vn 0.550400 0.760300 0.344800
vn 0.213500 0.923200 0.319500
g Icosphere.002_Icosphere.002_None
usemtl None
s 1
f 1/1/1 14/2/2 13/3/3
f 2/4/4 14/5/2 16/6/5
f 1/7/1 13/8/3 18/9/6
f 1/10/1 18/11/6 20/12/7
f 1/13/1 20/14/7 17/15/8
f 2/16/4 16/17/5 23/18/9
f 3/19/10 15/20/11 25/21/12
f 4/22/13 19/23/14 27/24/15
f 5/25/16 21/26/17 29/27/18
f 6/28/19 22/29/20 31/30/21
f 2/16/4 23/18/9 26/31/22
f 3/19/10 25/21/12 28/32/23
f 4/22/13 27/24/15 30/33/24
f 5/25/16 29/27/18 32/34/25
f 6/28/19 31/30/21 24/35/26
f 7/36/27 33/37/28 38/38/29
f 8/39/30 34/40/31 40/41/32
f 9/42/33 35/43/34 41/44/35
f 10/45/36 36/46/37 42/47/38
f 11/48/39 37/49/40 39/50/41
f 13/8/3 15/20/11 3/19/10
f 13/3/3 14/2/2 15/51/11
f 14/2/2 2/16/4 15/51/11
f 16/6/5 17/15/8 6/28/19
f 16/6/5 14/5/2 17/15/8
f 14/5/2 1/13/1 17/15/8
f 18/9/6 19/23/14 4/22/13
f 18/9/6 13/8/3 19/23/14
f 13/8/3 3/19/10 19/23/14
f 20/12/7 21/26/17 5/25/16
f 20/12/7 18/11/6 21/26/17
f 18/9/6 4/22/13 21/52/17
f 17/15/8 22/29/20 6/28/19
f 17/15/8 20/14/7 22/29/20
f 20/12/7 5/25/16 22/53/20
f 23/54/9 24/35/26 11/55/39
f 23/18/9 16/17/5 24/56/26
f 16/6/5 6/28/19 24/35/26
f 25/57/12 26/31/22 7/36/27
f 25/57/12 15/51/11 26/31/22
f 15/51/11 2/16/4 26/31/22
f 27/24/15 28/32/23 8/39/30
f 27/24/15 19/23/14 28/32/23
f 19/23/14 3/19/10 28/32/23
f 29/27/18 30/58/24 9/59/33
f 29/27/18 21/26/17 30/58/24
f 21/52/17 4/22/13 30/33/24
f 31/30/21 32/60/25 10/61/36
f 31/30/21 22/29/20 32/60/25
f 22/53/20 5/25/16 32/34/25
f 26/31/22 33/37/28 7/36/27
f 26/31/22 23/18/9 33/37/28
f 23/18/9 11/48/39 33/37/28
f 28/32/23 34/40/31 8/39/30
f 28/32/23 25/21/12 34/40/31
f 25/57/12 7/36/27 34/62/31
f 30/33/24 35/43/34 9/42/33
f 30/33/24 27/24/15 35/43/34
f 27/24/15 8/39/30 35/43/34
f 32/34/25 36/63/37 10/64/36
f 32/34/25 29/27/18 36/63/37
f 29/27/18 9/59/33 36/63/37
f 24/35/26 37/65/40 11/55/39
f 24/35/26 31/30/21 37/65/40
f 31/30/21 10/61/36 37/65/40
f 38/38/29 39/50/41 12/66/42
f 38/38/29 33/37/28 39/50/41
f 33/37/28 11/48/39 39/50/41
f 40/67/32 38/38/29 12/66/42
f 40/67/32 34/62/31 38/38/29
f 34/62/31 7/36/27 38/38/29
f 41/68/35 40/67/32 12/66/42
f 41/44/35 35/43/34 40/41/32
f 35/43/34 8/39/30 40/41/32
f 42/69/38 41/68/35 12/66/42
f 42/47/38 36/46/37 41/70/35
f 36/63/37 9/59/33 41/71/35
f 39/50/41 42/69/38 12/66/42
f 39/50/41 37/49/40 42/69/38
f 37/72/40 10/45/36 42/47/38
