# Blender v2.71 (sub 0) OBJ File: 'island.blend'
# www.blender.org
mtllib largeRock.mtl
o Icosphere.005
v -21.994448 -363.217590 13.316354
v 101.720444 -64.006104 66.303947
v -33.882320 -89.346710 83.750710
v -85.213341 -63.521004 -21.332129
v -19.672369 -60.040310 -93.638962
v 66.967903 -82.535820 -54.365284
v 30.773113 74.900803 104.838051
v -68.472565 89.257187 32.330154
v -76.435509 73.706413 -47.383251
v 19.788288 99.368843 -92.290283
v 78.514313 78.833931 -19.988583
v -8.330356 176.007553 -4.989854
v -21.205050 -232.556732 45.034588
v 30.959019 -227.180923 35.249325
v 17.229822 -99.539398 61.557976
v 82.335197 -109.967682 -17.315420
v 30.704502 -236.955765 -38.857235
v -44.166832 -217.098831 -19.960262
v -80.361702 -90.124458 36.688736
v -26.702894 -205.983963 -48.828609
v -60.923092 -85.673325 -61.575535
v 38.024284 -81.100372 -106.267685
v 96.547089 17.991047 21.094875
v 89.554016 0.748919 -49.239750
v -4.128494 -2.882983 111.524078
v 67.875923 -4.671874 83.119873
v -107.071312 22.257456 24.476196
v -68.338844 29.443325 66.708359
v -65.816559 10.034950 -101.180099
v -105.786530 29.843912 -41.669952
v 54.386650 11.532971 -99.724304
v -10.384982 7.273629 -114.354767
v 77.075981 126.900932 29.297485
v -37.848145 106.122025 60.143581
v -95.284134 103.544533 -3.211998
v -33.996998 93.905121 -84.867882
v 57.405888 94.787773 -70.436661
v 27.326445 174.253571 37.494934
v 43.167965 147.138535 -20.079725
v -42.094315 153.362610 24.911417
v -53.947399 144.163666 -49.597214
v 13.875040 144.340866 -56.823746
vt 0.541636 0.767551
vt 0.439749 0.572095
vt 0.521788 0.569313
vt 0.283962 0.244343
vt 0.279977 0.510424
vt 0.172410 0.339106
vt 0.642990 0.000000
vt 0.714951 0.184347
vt 0.621520 0.223341
vt 0.577412 0.241776
vt 0.931850 0.000000
vt 0.927770 0.249273
vt 0.842849 0.199203
vt 0.186291 0.144864
vt 0.521467 0.348771
vt 0.440539 0.378471
vt 0.466833 0.218571
vt 0.652330 0.455009
vt 0.735323 0.404407
vt 0.740382 0.575433
vt 0.910941 0.475070
vt 0.981852 0.426980
vt 0.981852 0.579498
vt 0.104053 0.317705
vt 0.019878 0.342361
vt 0.000000 0.204764
vt 0.308204 0.336677
vt 0.283962 0.237357
vt 0.350969 0.241406
vt 0.541636 0.182305
vt 0.640804 0.598718
vt 0.894066 0.579032
vt 0.086971 0.190728
vt 0.395699 0.115010
vt 0.291779 0.076818
vt 0.358209 0.000000
vt 0.759797 0.664534
vt 0.801501 0.678255
vt 0.756907 0.754537
vt 0.636474 0.658345
vt 0.711506 0.696979
vt 0.643144 0.757341
vt 0.926589 0.920554
vt 0.845610 0.926262
vt 0.905039 0.840354
vt 0.099248 0.079319
vt 0.013867 0.079974
vt 0.065843 0.000057
vt 0.174020 0.543962
vt 0.283962 0.728532
vt 0.801501 0.388140
vt 0.584013 0.425840
vt 0.818908 0.448237
vt 0.801309 0.570840
vt 0.541636 0.573716
vt 0.801501 0.577032
vt 0.860805 0.700334
vt 0.279131 0.172347
vt 0.154293 0.000000
vt 0.477362 0.079713
vt 0.943820 0.691347
vt 0.577832 0.687060
vt 1.000000 1.000000
vt 0.983540 0.891973
vt 0.912878 0.700334
vt 0.946724 0.789225
vt 0.860808 0.755406
vt 1.000000 0.742509
vt 0.812902 0.745997
vt 0.462427 0.025973
vt 0.801501 0.844195
vt 0.074352 0.728532
vt 0.074352 0.812057
vt 0.000000 0.735517
vn -0.142300 -0.984900 0.098300
vn 0.686800 -0.363700 0.629200
vn -0.440600 -0.273000 0.855200
vn 0.793600 -0.167000 0.585000
vn 0.930800 -0.265500 -0.251200
vn -0.938900 -0.274800 -0.207300
vn -0.450200 -0.342700 -0.824500
vn 0.623100 -0.484000 -0.614400
vn 0.986000 0.119400 0.116200
vn -0.268800 -0.260500 0.927300
vn 0.204800 -0.261500 0.943200
vn -0.113400 -0.086200 0.989800
vn -0.945200 -0.255700 -0.202600
vn -0.897700 -0.231500 0.374800
vn -0.934700 0.027600 0.354200
vn -0.351500 -0.281100 -0.893000
vn -0.724100 -0.274800 -0.632500
vn -0.581300 0.006100 -0.813600
vn 0.839800 -0.201900 -0.504000
vn 0.370300 -0.242500 -0.896700
vn 0.581300 0.065600 -0.811000
vn 0.594900 -0.011000 0.803700
vn -0.652200 0.143000 0.744400
vn -0.931900 0.070500 -0.355800
vn -0.066000 0.029500 -0.997400
vn 0.932600 0.002900 -0.360900
vn 0.209600 0.309600 0.927500
vn 0.862400 0.471700 0.183900
vn 0.241500 0.884600 0.398800
vn -0.706200 0.343500 0.619000
vn -0.516800 0.414300 0.749200
vn -0.562500 0.703600 0.434200
vn -0.731600 0.337300 -0.592500
vn -0.895500 0.436000 0.089200
vn -0.534500 0.664900 -0.521600
vn 0.174000 0.446000 -0.878000
vn -0.383500 0.390200 -0.837000
vn 0.218500 0.741400 -0.634400
vn 0.928300 0.285500 -0.238200
vn 0.724100 0.409000 -0.555300
vn 0.625200 0.701700 -0.341400
vn -0.105600 0.983800 -0.144900
g Icosphere.005_Icosphere.005_None
usemtl None
s 1
f 1/1/1 14/2/2 13/3/3
f 2/4/4 14/5/2 16/6/5
f 1/7/1 13/8/3 18/9/6
f 1/7/1 18/9/6 20/10/7
f 1/11/1 20/12/7 17/13/8
f 2/4/4 16/6/5 23/14/9
f 3/15/10 15/16/11 25/17/12
f 4/18/13 19/19/14 27/20/15
f 5/21/16 21/22/17 29/23/18
f 6/24/19 22/25/20 31/26/21
f 2/27/4 23/28/9 26/29/22
f 3/15/10 25/17/12 28/30/23
f 4/18/13 27/20/15 30/31/24
f 5/21/16 29/23/18 32/32/25
f 6/24/19 31/26/21 24/33/26
f 7/34/27 33/35/28 38/36/29
f 8/37/30 34/38/31 40/39/32
f 9/40/33 35/41/34 41/42/35
f 10/43/36 36/44/37 42/45/38
f 11/46/39 37/47/40 39/48/41
f 13/3/3 15/16/11 3/15/10
f 13/3/3 14/2/2 15/16/11
f 14/2/2 2/27/4 15/16/11
f 16/6/5 17/49/8 6/24/19
f 16/6/5 14/5/2 17/49/8
f 14/5/2 1/50/1 17/49/8
f 18/9/6 19/19/14 4/18/13
f 18/9/6 13/8/3 19/19/14
f 13/8/3 3/51/10 19/19/14
f 20/12/7 21/22/17 5/21/16
f 20/10/7 18/9/6 21/52/17
f 18/9/6 4/18/13 21/52/17
f 17/49/8 22/25/20 6/24/19
f 17/13/8 20/12/7 22/53/20
f 20/12/7 5/21/16 22/53/20
f 23/14/9 24/33/26 11/46/39
f 23/14/9 16/6/5 24/33/26
f 16/6/5 6/24/19 24/33/26
f 25/17/12 26/29/22 7/34/27
f 25/17/12 15/16/11 26/29/22
f 15/16/11 2/27/4 26/29/22
f 27/20/15 28/54/23 8/37/30
f 27/20/15 19/19/14 28/54/23
f 19/19/14 3/51/10 28/54/23
f 29/55/18 30/31/24 9/40/33
f 29/55/18 21/52/17 30/31/24
f 21/52/17 4/18/13 30/31/24
f 31/56/21 32/32/25 10/57/36
f 31/56/21 22/53/20 32/32/25
f 22/53/20 5/21/16 32/32/25
f 26/29/22 33/35/28 7/34/27
f 26/58/22 23/14/9 33/59/28
f 23/14/9 11/46/39 33/59/28
f 28/54/23 34/38/31 8/37/30
f 28/30/23 25/17/12 34/60/31
f 25/17/12 7/34/27 34/60/31
f 30/31/24 35/41/34 9/40/33
f 30/31/24 27/20/15 35/41/34
f 27/20/15 8/37/30 35/41/34
f 32/32/25 36/61/37 10/57/36
f 32/32/25 29/23/18 36/61/37
f 29/55/18 9/40/33 36/62/37
f 24/33/26 37/47/40 11/46/39
f 24/33/26 31/26/21 37/47/40
f 31/63/21 10/43/36 37/64/40
f 38/65/29 39/66/41 12/67/42
f 38/65/29 33/68/28 39/66/41
f 33/59/28 11/46/39 39/48/41
f 40/69/32 38/65/29 12/67/42
f 40/70/32 34/60/31 38/36/29
f 34/60/31 7/34/27 38/36/29
f 41/71/35 40/69/32 12/67/42
f 41/42/35 35/41/34 40/39/32
f 35/41/34 8/37/30 40/39/32
f 42/45/38 41/71/35 12/67/42
f 42/45/38 36/44/37 41/71/35
f 36/72/37 9/73/33 41/74/35
f 39/66/41 42/45/38 12/67/42
f 39/66/41 37/64/40 42/45/38
f 37/64/40 10/43/36 42/45/38
