# Blender v2.71 (sub 0) OBJ File: ''
# www.blender.org
mtllib glass.mtl
o Plane_Plane.010
v -5.000000 -0.481600 0.134393
v -5.000000 9.150381 -2.553530
v 5.000000 9.150381 -2.553530
v 5.000000 -0.481600 0.134393
v -5.000000 -0.454720 0.230712
v 5.000000 -0.454720 0.230712
v 5.000000 9.177260 -2.457210
v -5.000000 9.177260 -2.457210
vt 1.000000 0.000000
vt 1.000000 1.000000
vt 0.000000 1.000000
vt 0.000000 0.000000
vn 0.000000 -0.268800 -0.963200
vn 0.000000 0.268800 0.963200
vn 0.000000 0.963200 -0.268800
vn 1.000000 0.000000 0.000000
vn 0.000000 -0.963200 0.268800
vn -1.000000 0.000000 0.000000
usemtl None
s off
f 2/1/1 3/2/1 4/3/1
f 5/4/2 6/1/2 7/2/2
f 2/1/3 8/2/3 7/3/3
f 4/4/4 3/1/4 7/2/4
f 4/1/5 6/2/5 5/3/5
f 1/1/6 5/2/6 8/3/6
f 1/4/1 2/1/1 4/3/1
f 8/3/2 5/4/2 7/2/2
f 3/4/3 2/1/3 7/3/3
f 6/3/4 4/4/4 7/2/4
f 1/4/5 4/1/5 5/3/5
f 2/4/6 1/1/6 8/3/6
